[Header]
FileType HTR
DataType HTRS
FileVersion 1
NumSegments 64
NumFrames 3
DataFrameRate 30
EulerRotationOrder ZYX
CalibrationUnits mm
RotationUnits Degrees
GlobalAxisofGravity Y
BoneLengthAxis Y
ScaleFactor 1.0
[SegmentNames&Hierarchy]
Hips	GLOBAL
Spine	Hips
Spine1	Spine
Spine2	Spine1
Neck	Spine2
Head	Neck
LeftEye	Head
RightEye	Head
LeftShoulder	Spine2
LeftArm	LeftShoulder
LeftForeArm	LeftArm
LeftHand	LeftForeArm
LeftHandThumb1	LeftHand
LeftHandThumb2	LeftHandThumb1
LeftHandThumb3	LeftHandThumb2
LeftHandThumb4	LeftHandThumb3
LeftHandIndex1	LeftHand
LeftHandIndex2	LeftHandIndex1
LeftHandIndex3	LeftHandIndex2
LeftHandIndex4	LeftHandIndex3
LeftHandMiddle1	LeftHand
LeftHandMiddle2	LeftHandMiddle1
LeftHandMiddle3	LeftHandMiddle2
LeftHandMiddle4	LeftHandMiddle3
LeftHandRing1	LeftHand
LeftHandRing2	LeftHandRing1
LeftHandRing3	LeftHandRing2
LeftHandRing4	LeftHandRing3
LeftHandPinky1	LeftHand
LeftHandPinky2	LeftHandPinky1
LeftHandPinky3	LeftHandPinky2
LeftHandPinky4	LeftHandPinky3
RightShoulder	Spine2
RightArm	RightShoulder
RightForeArm	RightArm
RightHand	RightForeArm
RightHandPinky1	RightHand
RightHandPinky2	RightHandPinky1
RightHandPinky3	RightHandPinky2
RightHandPinky4	RightHandPinky3
RightHandRing1	RightHand
RightHandRing2	RightHandRing1
RightHandRing3	RightHandRing2
RightHandRing4	RightHandRing3
RightHandMiddle1	RightHand
RightHandMiddle2	RightHandMiddle1
RightHandMiddle3	RightHandMiddle2
RightHandMiddle4	RightHandMiddle3
RightHandIndex1	RightHand
RightHandIndex2	RightHandIndex1
RightHandIndex3	RightHandIndex2
RightHandIndex4	RightHandIndex3
RightHandThumb1	RightHand
RightHandThumb2	RightHandThumb1
RightHandThumb3	RightHandThumb2
RightHandThumb4	RightHandThumb3
LeftUpLeg	Hips
LeftLeg	LeftUpLeg
LeftFoot	LeftLeg
LeftToeBase	LeftFoot
RightUpLeg	Hips
RightLeg	RightUpLeg
RightFoot	RightLeg
RightToeBase	RightFoot
[BasePosition]
Hips	0	0	0	0	0	0	1
Spine	0	0	0	0	0	0	1
Spine1	0	0	0	0	0	0	1
Spine2	0	0	0	0	0	0	1
Neck	0	0	0	0	0	0	1
Head	0	0	0	0	0	0	1
LeftEye	0	0	0	0	0	0	1
RightEye	0	0	0	0	0	0	1
LeftShoulder	0	0	0	0	0	0	1
LeftArm	0	0	0	0	0	0	1
LeftForeArm	0	0	0	0	0	0	1
LeftHand	0	0	0	0	0	0	1
LeftHandThumb1	0	0	0	0	0	0	1
LeftHandThumb2	0	0	0	0	0	0	1
LeftHandThumb3	0	0	0	0	0	0	1
LeftHandThumb4	0	0	0	0	0	0	1
LeftHandIndex1	0	0	0	0	0	0	1
LeftHandIndex2	0	0	0	0	0	0	1
LeftHandIndex3	0	0	0	0	0	0	1
LeftHandIndex4	0	0	0	0	0	0	1
LeftHandMiddle1	0	0	0	0	0	0	1
LeftHandMiddle2	0	0	0	0	0	0	1
LeftHandMiddle3	0	0	0	0	0	0	1
LeftHandMiddle4	0	0	0	0	0	0	1
LeftHandRing1	0	0	0	0	0	0	1
LeftHandRing2	0	0	0	0	0	0	1
LeftHandRing3	0	0	0	0	0	0	1
LeftHandRing4	0	0	0	0	0	0	1
LeftHandPinky1	0	0	0	0	0	0	1
LeftHandPinky2	0	0	0	0	0	0	1
LeftHandPinky3	0	0	0	0	0	0	1
LeftHandPinky4	0	0	0	0	0	0	1
RightShoulder	0	0	0	0	0	0	1
RightArm	0	0	0	0	0	0	1
RightForeArm	0	0	0	0	0	0	1
RightHand	0	0	0	0	0	0	1
RightHandPinky1	0	0	0	0	0	0	1
RightHandPinky2	0	0	0	0	0	0	1
RightHandPinky3	0	0	0	0	0	0	1
RightHandPinky4	0	0	0	0	0	0	1
RightHandRing1	0	0	0	0	0	0	1
RightHandRing2	0	0	0	0	0	0	1
RightHandRing3	0	0	0	0	0	0	1
RightHandRing4	0	0	0	0	0	0	1
RightHandMiddle1	0	0	0	0	0	0	1
RightHandMiddle2	0	0	0	0	0	0	1
RightHandMiddle3	0	0	0	0	0	0	1
RightHandMiddle4	0	0	0	0	0	0	1
RightHandIndex1	0	0	0	0	0	0	1
RightHandIndex2	0	0	0	0	0	0	1
RightHandIndex3	0	0	0	0	0	0	1
RightHandIndex4	0	0	0	0	0	0	1
RightHandThumb1	0	0	0	0	0	0	1
RightHandThumb2	0	0	0	0	0	0	1
RightHandThumb3	0	0	0	0	0	0	1
RightHandThumb4	0	0	0	0	0	0	1
LeftUpLeg	0	0	0	0	0	0	1
LeftLeg	0	0	0	0	0	0	1
LeftFoot	0	0	0	0	0	0	1
LeftToeBase	0	0	0	0	0	0	1
RightUpLeg	0	0	0	0	0	0	1
RightLeg	0	0	0	0	0	0	1
RightFoot	0	0	0	0	0	0	1
RightToeBase	0	0	0	0	0	0	1
[Hips]
9	-38.78397369	1030.119873	-59.15922165	-2.826333046	19.90160751	-2.341506481	1.0
10	-42.76198959	1029.860718	-67.61061096	-3.119178772	22.44623375	-2.31297493	1.0
11	-44.25708389	1029.071899	-75.5849762	-3.653006077	24.75815392	-2.519995928	1.0
[Spine]
9	0	101.8159943	1.315000057	3.877089739	2.984832525	1.425815701	1.0
10	0	101.8159943	1.315000057	3.765819073	3.125816822	1.186904073	1.0
11	0	101.8159943	1.315000057	3.654772043	3.363508463	1.301341772	1.0
[Spine1]
9	0	100.8349991	-10.00800037	1.815723658	1.650082827	3.730517864	1.0
10	0	100.8349991	-10.00800037	1.750353932	1.788880348	4.15781498	1.0
11	0	100.8349991	-10.00800037	1.662811995	2.033802748	4.575220108	1.0
[Spine2]
9	0	91	-13.73399925	1.724004626	1.514050126	1.748125196	1.0
10	0	91	-13.73399925	1.64535296	1.613593698	1.794544458	1.0
11	0	91	-13.73399925	1.539572477	1.817407608	1.841377616	1.0
[Neck]
9	0	166.7169952	-25.16200066	8.000697136	9.271793365	-1.422443628	1.0
10	0	166.7169952	-25.16200066	8.017623901	9.331917763	-1.438079953	1.0
11	0	166.7169952	-25.16200066	8.043545723	9.217181206	-1.465985775	1.0
[Head]
9	0	96.17900085	16.84999847	-3.124009848	26.08767128	-8.009992599	1.0
10	0	96.17900085	16.84999847	-3.031072855	26.82969666	-8.606780052	1.0
11	0	96.17900085	16.84999847	-3.02247262	27.00057602	-9.082549095	1.0
[LeftEye]
9	30.6760006	64.09500122	92.83599854	0	0	0	1.0
10	30.6760006	64.09500122	92.83599854	0	0	0	1.0
11	30.6760006	64.09500122	92.83599854	0	0	0	1.0
[RightEye]
9	-30.6760006	64.09500122	92.83499908	0	0	0	1.0
10	-30.6760006	64.09500122	92.83499908	0	0	0	1.0
11	-30.6760006	64.09500122	92.83499908	0	0	0	1.0
[LeftShoulder]
9	45.70400238	109.4599991	-26.28000069	5.287312031	-16.70263672	-16.73774719	1.0
10	45.70400238	109.4599991	-26.28000069	5.34820652	-16.58901978	-17.25740242	1.0
11	45.70400238	109.4599991	-26.28000069	5.447772503	-16.23911858	-17.80986023	1.0
[LeftArm]
9	105.923996	-5.24600029	-22.32099915	13.42210197	-7.399060726	-59.06418991	1.0
10	105.923996	-5.24600029	-22.32099915	13.26166916	-5.35628891	-57.71278763	1.0
11	105.923996	-5.24600029	-22.32099915	13.50481796	-3.173261642	-56.91292953	1.0
[LeftForeArm]
9	278.414978	-0.0009999999311	0	-5.832813486e-07	-15.89090919	-0.0001980391971	1.0
10	278.414978	-0.0009999999311	0	-5.08174162e-06	-18.93920898	-0.0001763399923	1.0
11	278.414978	-0.0009999999311	0	-6.497278264e-06	-21.3006897	-0.0001886541286	1.0
[LeftHand]
9	283.2879944	0	0	-21.90433884	-2.031959534	12.26696491	1.0
10	283.2879944	0	0	-22.14031601	-1.965573549	12.94736481	1.0
11	283.2879944	0	0	-22.41614723	-1.923968554	13.11147881	1.0
[LeftHandThumb1]
9	24.6609993	-15.75	26.8239994	-0.4889881611	2.201389551	4.818526268	1.0
10	24.6609993	-15.75	26.8239994	-0.4889881611	2.201389551	4.818526268	1.0
11	24.6609993	-15.75	26.8239994	-0.4889881611	2.201389551	4.818526268	1.0
[LeftHandThumb2]
9	32.29800034	-18.64699936	18.64699936	21.282547	19.57093811	23.59662247	1.0
10	32.29800034	-18.64699936	18.64699936	21.22707939	19.37439156	23.49484062	1.0
11	32.29800034	-18.64699936	18.64699936	21.14130402	19.13267517	23.35181618	1.0
[LeftHandThumb3]
9	26.52600098	-15.31499958	15.31499958	-11.99862862	3.710092783	8.766329765	1.0
10	26.52600098	-15.31499958	15.31499958	-11.9519453	3.690525293	8.751472473	1.0
11	26.52600098	-15.31499958	15.31499958	-12.07990646	3.847104073	8.637569427	1.0
[LeftHandThumb4]
9	19.54599953	-11.28499985	11.28499985	0	0	0	1.0
10	19.54599953	-11.28499985	11.28499985	0	0	0	1.0
11	19.54599953	-11.28499985	11.28499985	0	0	0	1.0
[LeftHandIndex1]
9	91.09299469	-5.170999527	22.60099792	0.2151867598	-0.4521603882	-9.230383873	1.0
10	91.09299469	-5.170999527	22.60099792	0.2224972546	-0.4530554414	-9.156313896	1.0
11	91.09299469	-5.170999527	22.60099792	0.2235523164	-0.497428745	-8.949799538	1.0
[LeftHandIndex2]
9	36.76399994	0	0	-0.267316103	1.747161865	-17.39688683	1.0
10	36.76399994	0	0	-0.2673205137	1.747160673	-17.3969059	1.0
11	36.76399994	0	0	-0.2673214376	1.747157335	-17.39689445	1.0
[LeftHandIndex3]
9	28.83100128	0	0	-0.05772413313	0.8194004297	-8.0587883	1.0
10	28.83100128	0	0	-0.05771983042	0.8194023371	-8.058774948	1.0
11	28.83100128	0	0	-0.05771765485	0.8194031119	-8.058765411	1.0
[LeftHandIndex4]
9	23.92700005	0	0	0	0	0	1.0
10	23.92700005	0	0	0	0	0	1.0
11	23.92700005	0	0	0	0	0	1.0
[LeftHandMiddle1]
9	95.33399963	0	0	-0.9099007249	3.23440671	-17.3857708	1.0
10	95.33399963	0	0	-0.9044729471	3.27243042	-17.30731964	1.0
11	95.33399963	0	0	-0.8890786767	3.261222124	-17.08652496	1.0
[LeftHandMiddle2]
9	36.98199844	0	0	-0.2711679339	1.759370208	-17.52252197	1.0
10	36.98199844	0	0	-0.2711391449	1.759286642	-17.52162552	1.0
11	36.98199844	0	0	-0.2708086967	1.758223772	-17.51071167	1.0
[LeftHandMiddle3]
9	29.50900078	0	0	-0.3029104769	1.856873751	-18.52854347	1.0
10	29.50900078	0	0	-0.3028835952	1.856780529	-18.527565	1.0
11	29.50900078	0	0	-0.3025234044	1.85572052	-18.5165863	1.0
[LeftHandMiddle4]
9	28.3390007	0	0	0	0	0	1.0
10	28.3390007	0	0	0	0	0	1.0
11	28.3390007	0	0	0	0	0	1.0
[LeftHandRing1]
9	91.04499817	-0.4390000105	-18.65100098	-1.279888868	3.811226845	-22.40548706	1.0
10	91.04499817	-0.4390000105	-18.65100098	-1.275983572	3.803194284	-22.35490036	1.0
11	91.04499817	-0.4390000105	-18.65100098	-1.26601994	3.751771688	-22.22616196	1.0
[LeftHandRing2]
9	31.54000092	0	0	-0.3871645033	2.091379642	-20.9739666	1.0
10	31.54000092	0	0	-0.3866271675	2.08998847	-20.95929718	1.0
11	31.54000092	0	0	-0.3860605955	2.088529587	-20.94389153	1.0
[LeftHandRing3]
9	29.37700081	0	0	-0.2836900055	1.798527241	-17.92580032	1.0
10	29.37700081	0	0	-0.2832320035	1.797098398	-17.91114807	1.0
11	29.37700081	0	0	-0.2827532589	1.795626402	-17.89592171	1.0
[LeftHandRing4]
9	26.47500038	0	0	0	0	0	1.0
10	26.47500038	0	0	0	0	0	1.0
11	26.47500038	0	0	0	0	0	1.0
[LeftHandPinky1]
9	80.77799988	-4.887000084	-38.06099701	-1.709683299	5.990082264	-27.81249619	1.0
10	80.77799988	-4.887000084	-38.06099701	-1.705345035	6.00545311	-27.76683807	1.0
11	80.77799988	-4.887000084	-38.06099701	-1.698143721	6.023350716	-27.67487907	1.0
[LeftHandPinky2]
9	36	0	0	-0.2681091428	1.749648571	-17.42253304	1.0
10	36	0	0	-0.2676402032	1.748165846	-17.40727234	1.0
11	36	0	0	-0.2669653296	1.74602735	-17.38525391	1.0
[LeftHandPinky3]
9	21.14200211	0	0	-0.2413781285	1.662127137	-16.52472878	1.0
10	21.14200211	0	0	-0.2409469783	1.660652995	-16.50965118	1.0
11	21.14200211	0	0	-0.2403174043	1.65852356	-16.48783493	1.0
[LeftHandPinky4]
9	19.75699997	0	0	0	0	0	1.0
10	19.75699997	0	0	0	0	0	1.0
11	19.75699997	0	0	0	0	0	1.0
[RightShoulder]
9	-45.70000076	109.4620056	0	5.049757004	14.14471531	14.94939709	1.0
10	-45.70000076	109.4620056	0	4.992156029	13.91237354	15.02653694	1.0
11	-45.70000076	109.4620056	0	4.930300713	13.67148876	15.0759058	1.0
[RightArm]
9	-105.9280014	-5.248000145	-22.32099915	29.68387413	-4.294359684	55.23480606	1.0
10	-105.9280014	-5.248000145	-22.32099915	29.62920189	-5.50795126	53.8728714	1.0
11	-105.9280014	-5.248000145	-22.32099915	29.66254044	-6.848174095	52.4613266	1.0
[RightForeArm]
9	-278.414978	0	0	3.778803546e-07	11.37094498	-6.223871196e-07	1.0
10	-278.414978	0	0	-7.643377103e-06	12.48941898	-8.513732723e-07	1.0
11	-278.414978	0	0	4.84926386e-06	13.55613041	-1.373195005e-06	1.0
[RightHand]
9	-283.2879944	0	0.0009999999311	-24.37592125	-5.520702839	5.945096493	1.0
10	-283.2879944	0	0.0009999999311	-25.01274109	-6.286715031	6.098913193	1.0
11	-283.2879944	0	0.0009999999311	-25.71060753	-6.866668701	6.222973824	1.0
[RightHandPinky1]
9	-80.76699829	-4.885000229	-38.06000137	-1.685826063	-4.023705482	27.26523209	1.0
10	-80.76699829	-4.885000229	-38.06000137	-1.688968301	-4.017773628	27.28854179	1.0
11	-80.76699829	-4.885000229	-38.06000137	-1.663734198	-4.092863083	27.13838768	1.0
[RightHandPinky2]
9	-36	0	0.0009999999311	-0.2152920365	-1.396923542	17.54193687	1.0
10	-36	0	0.0009999999311	-0.2141649574	-1.393356681	17.49574089	1.0
11	-36	0	0.0009999999311	-0.2145330757	-1.394531965	17.51106071	1.0
[RightHandPinky3]
9	-21.14200211	0	0	-0.1939586848	-1.327478051	16.62504387	1.0
10	-21.14200211	0	0	-0.192886591	-1.323882103	16.57865143	1.0
11	-21.14200211	0	0	-0.193296656	-1.325200558	16.59578514	1.0
[RightHandPinky4]
9	-19.75699997	0	0	0	0	0	1.0
10	-19.75699997	0	0	0	0	0	1.0
11	-19.75699997	0	0	0	0	0	1.0
[RightHandRing1]
9	-91.03599548	-0.4390000105	-18.65100098	-1.08315289	-2.684656382	21.05467796	1.0
10	-91.03599548	-0.4390000105	-18.65100098	-1.084658265	-2.669816494	21.07770538	1.0
11	-91.03599548	-0.4390000105	-18.65100098	-1.08054626	-2.688291311	21.01553726	1.0
[RightHandRing2]
9	-31.54000092	0	0	-0.3062243462	-1.657527328	20.93319702	1.0
10	-31.54000092	0	0	-0.3058514595	-1.656553864	20.92029953	1.0
11	-31.54000092	0	0	-0.3057491183	-1.656306982	20.91688156	1.0
[RightHandRing3]
9	-29.37700081	0	0	-0.2241530418	-1.424643159	17.88196182	1.0
10	-29.37700081	0	0	-0.2238293439	-1.423655272	17.86909294	1.0
11	-29.37700081	0	0	-0.2237380594	-1.423392653	17.86563873	1.0
[RightHandRing4]
9	-26.47500038	0	0	0	0	0	1.0
10	-26.47500038	0	0	0	0	0	1.0
11	-26.47500038	0	0	0	0	0	1.0
[RightHandMiddle1]
9	-95.32500458	0	0	-0.7309982181	-2.129662275	15.50379467	1.0
10	-95.32500458	0	0	-0.729301393	-2.130006552	15.47560596	1.0
11	-95.32500458	0	0	-0.7199928761	-2.166281462	15.31955528	1.0
[RightHandMiddle2]
9	-36.98199844	0	0	-0.2159207016	-1.398895741	17.54805183	1.0
10	-36.98199844	0	0	-0.2158042043	-1.398526311	17.54335403	1.0
11	-36.98199844	0	0	-0.2153822184	-1.397176743	17.52582169	1.0
[RightHandMiddle3]
9	-29.50900078	0	0	-0.2412505895	-1.47860527	18.55741882	1.0
10	-29.50900078	0	0	-0.2411283255	-1.478238225	18.55271912	1.0
11	-29.50900078	0	0	-0.2406642586	-1.476859689	18.53488922	1.0
[RightHandMiddle4]
9	-28.3390007	0	0.0009999999311	0	0	0	1.0
10	-28.3390007	0	0.0009999999311	0	0	0	1.0
11	-28.3390007	0	0.0009999999311	0	0	0	1.0
[RightHandIndex1]
9	-91.08300018	-5.167999744	22.60099792	0.09165139496	1.322778583	7.446631908	1.0
10	-91.08300018	-5.167999744	22.60099792	0.08490587771	1.324593782	7.508896828	1.0
11	-91.08300018	-5.167999744	22.60099792	0.1062943041	1.278158426	7.557023048	1.0
[RightHandIndex2]
9	-36.76399994	0	0	-0.2123206109	-1.387478352	17.40006638	1.0
10	-36.76399994	0	0	-0.2112351358	-1.384027481	17.35547066	1.0
11	-36.76399994	0	0	-0.2108008116	-1.382583499	17.33685684	1.0
[RightHandIndex3]
9	-28.83100128	0	0	-0.04567655176	-0.6495118141	8.045951843	1.0
10	-28.83100128	0	0	-0.04517266527	-0.6459373236	8.001361847	1.0
11	-28.83100128	0	0	-0.04496818036	-0.6444498897	7.982758522	1.0
[RightHandIndex4]
9	-23.92700005	0	0	0	0	0	1.0
10	-23.92700005	0	0	0	0	0	1.0
11	-23.92700005	0	0	0	0	0	1.0
[RightHandThumb1]
9	-24.64799881	-15.72700024	26.82600021	-1.658465981	-0.2891423702	-4.221325874	1.0
10	-24.64799881	-15.72700024	26.82600021	-1.658465981	-0.2891423702	-4.221325874	1.0
11	-24.64799881	-15.72700024	26.82600021	-1.658465981	-0.2891423702	-4.221325874	1.0
[RightHandThumb2]
9	-32.29800034	-18.64699936	18.64699936	22.07729721	-23.59051323	-24.04629326	1.0
10	-32.29800034	-18.64699936	18.64699936	21.92728615	-23.1953373	-23.92978668	1.0
11	-32.29800034	-18.64699936	18.64699936	21.9763813	-23.02233124	-23.88988113	1.0
[RightHandThumb3]
9	-26.52600098	-15.31399918	15.31399918	-14.49318314	-6.731552601	-11.3692627	1.0
10	-26.52600098	-15.31399918	15.31399918	-14.49332905	-6.731157303	-11.36925793	1.0
11	-26.52600098	-15.31399918	15.31399918	-14.49378014	-6.730047703	-11.36926651	1.0
[RightHandThumb4]
9	-19.54599953	-11.28499985	11.28499985	0	0	0	1.0
10	-19.54599953	-11.28499985	11.28499985	0	0	0	1.0
11	-19.54599953	-11.28499985	11.28499985	0	0	0	1.0
[LeftUpLeg]
9	82.07800293	-67.51699829	-15.99599934	-14.47030067	35.60243607	11.25362778	1.0
10	82.07800293	-67.51699829	-15.99599934	-12.1443634	36.07936859	11.61819649	1.0
11	82.07800293	-67.51699829	-15.99599934	-9.567989349	37.13804245	11.50543499	1.0
[LeftLeg]
9	0	-443.7049866	2.845999956	28.37453651	7.545373917	-1.279470086	1.0
10	0	-443.7049866	2.845999956	28.13793564	7.880082607	-1.078655481	1.0
11	0	-443.7049866	2.845999956	26.22199821	7.083565235	-0.189703092	1.0
[LeftFoot]
9	0	-444.2789917	-29.8219986	-1.67105484	29.41363716	-3.663585663	1.0
10	0	-444.2789917	-29.8219986	-6.588922024	29.63046455	-5.044214249	1.0
11	0	-444.2789917	-29.8219986	-10.26104927	29.21915436	-6.733005047	1.0
[LeftToeBase]
9	0	-87.28699493	107.1060028	-6.123074532	-3.667731789e-06	4.067236716e-07	1.0
10	0	-87.28699493	107.1060028	-6.937748432	-1.264364073e-05	7.694313808e-07	1.0
11	0	-87.28699493	107.1060028	-7.421592236	3.976637163e-05	2.537969522e-06	1.0
[RightUpLeg]
9	-82.07800293	-67.51699829	-15.99599934	-8.059972763	-36.55388641	5.53694582	1.0
10	-82.07800293	-67.51699829	-15.99599934	-8.528033257	-39.07224655	5.679711819	1.0
11	-82.07800293	-67.51699829	-15.99599934	-8.828037262	-41.35233307	5.696330547	1.0
[RightLeg]
9	0	-443.7049866	2.861999989	13.07211399	-8.978479385	-5.399080276	1.0
10	0	-443.7049866	2.861999989	13.27106285	-9.006626129	-5.441980839	1.0
11	0	-443.7049866	2.861999989	13.75940323	-9.033823013	-5.535277367	1.0
[RightFoot]
9	0	-444.2770081	-29.83799934	-5.250669479	-1.520339012	0.392418623	1.0
10	0	-444.2770081	-29.83799934	-5.166931629	-1.526604772	0.1038624421	1.0
11	0	-444.2770081	-29.83799934	-5.172161102	-1.531834245	-0.00333850598	1.0
[RightToeBase]
9	0	-87.28699493	107.1060028	-7.282877445	1.805540478e-06	-5.636267133e-07	1.0
10	0	-87.28699493	107.1060028	-7.282877445	-6.14231476e-06	-1.247767614e-06	1.0
11	0	-87.28699493	107.1060028	-7.282875538	-4.536297183e-06	1.48379263e-06	1.0
[EndOfFile]
